<?xml version="1.0" standalone="no"?>
<!DOCTYPE svg PUBLIC "-//W3C//DTD SVG 20010904//EN"
 "http://www.w3.org/TR/2001/REC-SVG-20010904/DTD/svg10.dtd">
<svg version="1.0" xmlns="http://www.w3.org/2000/svg"
 width="653.000000pt" height="653.000000pt" viewBox="0 0 653.000000 653.000000"
 preserveAspectRatio="xMidYMid meet">
<metadata>
Created by potrace 1.11, written by Peter Selinger 2001-2013
</metadata>
<g transform="translate(0.000000,653.000000) scale(0.100000,-0.100000)"
fill="#000000" stroke="none">
<path d="M705 6520 c3 -5 15 -10 25 -10 10 0 22 5 25 10 4 6 -7 10 -25 10 -18
0 -29 -4 -25 -10z"/>
<path d="M3043 6341 c-414 -422 -544 -551 -560 -551 -8 0 -22 8 -30 18 -12 15
-12 13 -2 -11 15 -33 8 -43 -20 -26 -24 15 -39 6 -22 -14 9 -11 3 -21 -25 -48
-19 -19 -52 -52 -72 -73 -64 -68 -256 -257 -287 -283 -30 -26 -45 -47 -65 -93
-10 -21 -89 -102 -364 -370 -91 -89 -597 -597 -1243 -1248 -312 -314 -353
-359 -353 -386 0 -27 19 -50 136 -166 74 -74 144 -151 154 -170 20 -39 103
-120 123 -120 6 0 76 -65 155 -143 114 -115 141 -148 136 -163 -4 -10 -12 -22
-17 -25 -23 -16 -177 -172 -177 -180 0 -5 -4 -9 -8 -9 -12 0 -292 -281 -292
-294 0 -6 117 -128 260 -270 l260 -260 82 80 c46 43 110 109 143 145 33 37 63
67 66 68 9 1 173 169 177 181 2 6 10 10 17 10 7 0 15 5 17 11 9 26 51 -8 192
-154 182 -187 195 -200 379 -378 82 -79 155 -156 163 -171 10 -19 275 -296
422 -440 50 -49 119 -108 127 -108 16 0 295 -288 295 -305 0 -19 84 -105 102
-105 8 0 81 -65 162 -145 123 -121 153 -145 177 -145 25 0 55 24 176 143 80
78 168 165 195 192 27 28 121 123 208 213 88 89 164 162 170 162 12 0 480 468
480 480 0 5 9 11 19 15 11 3 23 16 27 28 4 12 66 82 138 155 118 120 185 172
223 172 7 0 13 9 13 21 0 16 4 19 20 14 21 -7 29 10 8 18 -10 3 -8 9 5 24 9
11 17 24 17 30 0 11 284 293 296 293 4 0 122 -113 260 -252 l253 -251 261 261
c144 144 260 266 258 272 -1 5 -113 120 -247 254 -189 190 -242 248 -237 262
3 11 170 183 371 383 328 327 394 401 356 401 -5 0 -86 78 -180 173 -94 94
-190 190 -212 212 -23 22 -108 107 -188 188 -193 196 -644 647 -818 818 -76
75 -148 147 -159 160 -12 13 -108 109 -214 213 -106 105 -203 207 -216 228
-14 21 -98 113 -187 203 -89 91 -167 170 -173 177 -25 29 -157 144 -172 150
-18 6 -265 253 -324 322 -18 21 -46 51 -63 65 -16 14 -100 94 -185 178 -122
119 -161 153 -180 152 -18 -2 -75 -53 -207 -188z m224 -1138 c54 -36 89 -72
119 -122 10 -17 29 -31 46 -35 43 -8 111 -83 125 -136 10 -40 9 -55 -17 -145
-60 -208 -78 -266 -90 -280 -11 -13 -44 -15 -209 -13 l-196 3 -23 65 c-13 36
-30 85 -37 110 -6 25 -24 84 -38 132 -25 83 -25 90 -11 138 18 62 59 110 127
148 29 16 65 42 81 56 25 24 28 32 22 67 -4 22 -4 44 -1 49 8 13 46 0 102 -37z
m-232 -1173 c3 -5 19 -10 35 -10 79 0 120 -58 120 -170 0 -39 -4 -78 -9 -88
-5 -9 -18 -37 -29 -62 -12 -25 -38 -62 -60 -83 -37 -36 -42 -38 -111 -39 -71
-2 -72 -1 -109 39 -110 118 -52 354 100 410 42 15 55 15 63 3z m-1025 -30 l25
-19 -25 -18 c-14 -10 -34 -22 -44 -28 -39 -20 -58 -73 -82 -223 -4 -23 -11
-45 -15 -48 -5 -3 -9 -15 -9 -28 0 -31 -34 -97 -62 -122 -38 -32 -113 -37
-165 -11 -32 15 -43 26 -43 44 0 26 8 28 42 12 17 -7 32 -6 59 5 30 12 43 29
71 84 20 37 38 81 41 97 3 17 8 39 12 51 5 18 2 22 -22 27 -19 4 -34 17 -48
42 -19 37 -19 37 0 73 33 61 75 82 164 82 60 0 81 -5 101 -20z m2200 10 c0 -5
9 -10 20 -10 11 0 34 -14 52 -30 26 -25 31 -38 31 -75 0 -47 -30 -95 -60 -95
-18 0 -16 -10 8 -36 14 -15 22 -39 24 -72 3 -43 0 -54 -23 -77 -37 -37 -106
-60 -141 -47 -79 29 -112 35 -123 24 -20 -20 -116 -15 -149 9 -50 35 -31 79
21 47 15 -10 26 -9 54 5 35 16 86 83 86 112 0 9 5 25 10 36 9 16 7 19 -12 19
-33 0 -68 38 -68 74 0 41 52 106 85 106 13 0 27 5 30 10 3 6 40 10 81 10 43 0
74 -4 74 -10z m242 -74 c12 -18 9 -44 -8 -60 -28 -28 -66 -18 -78 21 -5 15 -1
28 14 43 22 22 57 20 72 -4z m168 -77 c0 -43 3 -49 21 -49 16 0 20 -5 17 -27
-2 -23 -9 -29 -33 -31 -36 -4 -55 -26 -55 -64 0 -24 4 -28 30 -28 18 0 30 5
30 13 0 25 33 82 64 110 26 23 39 27 80 25 55 -3 73 -20 63 -60 -4 -16 -22
-33 -52 -48 -25 -13 -45 -27 -45 -32 0 -4 36 -8 81 -8 l80 0 -3 -27 c-6 -49
-28 -53 -313 -50 -143 1 -266 6 -272 10 -25 15 -14 96 23 185 13 30 18 33 52
30 44 -4 51 -22 28 -70 -9 -17 -16 -42 -16 -55 0 -19 5 -23 31 -23 25 0 32 6
45 37 15 34 15 37 -4 52 -15 12 -18 21 -11 39 4 12 16 22 26 22 18 0 43 41 43
71 0 19 17 35 45 41 32 7 45 -11 45 -63z m-2002 4 c2 -39 7 -53 18 -53 11 0
14 -8 12 -27 -2 -22 -9 -29 -31 -31 -29 -3 -47 -32 -47 -73 0 -17 7 -19 69
-19 59 0 69 -3 74 -19 3 -13 -4 -26 -23 -39 -25 -19 -41 -20 -224 -19 -176 2
-198 4 -207 19 -9 17 -12 17 -50 -3 -35 -17 -57 -20 -142 -18 -132 3 -151 13
-144 77 6 61 27 135 41 144 18 12 74 9 79 -4 2 -7 1 -20 -3 -28 -12 -25 -19
-100 -9 -100 5 0 9 11 9 24 0 14 5 28 10 31 6 3 10 17 10 30 0 44 10 55 50 55
22 0 41 -4 44 -9 4 -5 -1 -35 -9 -67 -19 -74 -19 -74 8 -74 46 0 117 86 117
142 0 46 24 78 59 78 30 0 58 -39 41 -56 -6 -6 5 -24 24 -45 32 -34 45 -82 25
-95 -18 -11 -8 -24 16 -24 16 0 28 7 31 18 3 9 10 25 15 34 14 27 11 38 -11
38 -13 0 -20 7 -20 18 0 23 19 42 42 42 10 0 18 6 18 13 0 6 9 31 20 55 18 40
22 43 52 40 32 -3 33 -4 36 -55z m748 -56 c48 5 53 3 70 -22 15 -22 16 -32 6
-59 -16 -44 -15 -66 3 -66 8 0 15 8 15 18 0 9 9 35 19 58 25 56 89 88 144 73
45 -12 60 -49 32 -79 -20 -22 -71 -50 -92 -50 -7 0 -13 -4 -13 -10 0 -6 35
-10 85 -10 71 0 87 -3 92 -17 4 -10 -3 -24 -21 -39 -25 -22 -33 -23 -176 -22
-126 1 -154 4 -180 19 -34 21 -37 40 -15 92 8 19 12 37 9 40 -15 14 -46 -23
-60 -69 -18 -63 -43 -89 -79 -80 -38 10 -36 44 12 183 15 44 37 56 78 42 11
-4 43 -4 71 -2z m-35 -2021 c118 -36 193 -97 242 -195 29 -60 32 -74 32 -161
0 -89 -2 -100 -35 -164 -55 -108 -145 -175 -266 -198 -152 -28 -312 54 -387
197 -29 55 -31 68 -32 160 0 90 3 106 29 158 15 32 47 78 70 101 46 48 125 96
159 96 12 0 29 5 37 10 22 14 98 12 151 -4z"/>
<path d="M3106 4752 c-6 -11 19 -121 30 -131 4 -3 4 23 1 58 -5 62 -18 93 -31
73z"/>
<path d="M3280 4725 c0 -14 5 -25 10 -25 6 0 10 11 10 25 0 14 -4 25 -10 25
-5 0 -10 -11 -10 -25z"/>
<path d="M3361 4683 l1 -68 13 55 c18 71 18 80 0 80 -12 0 -15 -14 -14 -67z"/>
<path d="M2967 3942 c-10 -10 -17 -25 -17 -33 0 -8 -4 -19 -9 -24 -18 -21 -30
-122 -19 -161 17 -58 37 -77 72 -70 50 10 76 46 102 143 15 56 4 113 -21 113
-22 0 -26 -15 -26 -90 0 -59 -3 -70 -17 -70 -9 0 -22 4 -27 8 -32 22 -47 131
-24 174 14 27 6 33 -14 10z"/>
<path d="M1878 3953 c6 -2 18 -2 25 0 6 3 1 5 -13 5 -14 0 -19 -2 -12 -5z"/>
<path d="M1826 3921 c-18 -20 -19 -60 -2 -64 5 -1 20 17 33 41 22 39 22 42 5
42 -10 0 -27 -9 -36 -19z"/>
<path d="M4046 3934 c-16 -17 -26 -38 -26 -55 0 -16 2 -29 5 -29 3 0 16 17 29
38 13 22 32 46 41 55 15 16 15 17 -3 17 -11 0 -31 -12 -46 -26z"/>
<path d="M4158 3923 c-9 -10 -18 -29 -21 -43 -3 -14 -9 -35 -12 -47 -6 -20 -4
-23 16 -23 31 1 52 18 68 57 22 54 -16 96 -51 56z"/>
<path d="M4100 3721 c-19 -47 -10 -75 26 -79 36 -3 57 16 57 53 0 58 -61 77
-83 26z"/>
<path d="M2300 3689 c-13 -24 -8 -34 15 -26 16 7 21 47 5 47 -5 0 -14 -9 -20
-21z"/>
<path d="M3350 1616 c-27 -33 18 -72 48 -42 13 13 14 20 6 34 -15 23 -38 26
-54 8z"/>
<path d="M3060 1586 c-10 -13 -10 -19 0 -32 12 -14 15 -14 29 0 14 15 14 17 0
32 -14 14 -17 14 -29 0z"/>
<path d="M3352 1378 c-16 -16 -15 -25 2 -31 21 -8 40 17 23 31 -10 9 -17 8
-25 0z"/>
<path d="M3105 1316 c-20 -15 -17 -45 7 -60 24 -15 61 19 48 44 -13 25 -35 31
-55 16z"/>
<path d="M5730 6520 c20 -13 47 -13 55 0 4 6 -9 10 -32 10 -28 0 -34 -3 -23
-10z"/>
<path d="M5001 6434 c0 -11 3 -14 6 -6 3 7 2 16 -1 19 -3 4 -6 -2 -5 -13z"/>
<path d="M170 6394 c0 -8 5 -12 10 -9 6 4 8 11 5 16 -9 14 -15 11 -15 -7z"/>
<path d="M26 6385 c4 -8 8 -15 10 -15 2 0 4 7 4 15 0 8 -4 15 -10 15 -5 0 -7
-7 -4 -15z"/>
<path d="M5030 6396 c0 -2 7 -6 15 -10 8 -3 15 -1 15 4 0 6 -7 10 -15 10 -8 0
-15 -2 -15 -4z"/>
<path d="M5095 6340 c3 -5 11 -10 16 -10 6 0 7 5 4 10 -3 6 -11 10 -16 10 -6
0 -7 -4 -4 -10z"/>
<path d="M235 6289 c-4 -6 -5 -12 -2 -15 2 -3 7 2 10 11 7 17 1 20 -8 4z"/>
<path d="M285 6291 c-3 -5 -1 -12 5 -16 5 -3 10 1 10 9 0 18 -6 21 -15 7z"/>
<path d="M1980 6259 c0 -5 5 -7 10 -4 6 3 10 8 10 11 0 2 -4 4 -10 4 -5 0 -10
-5 -10 -11z"/>
<path d="M4480 6250 c-9 -6 -10 -10 -3 -10 6 0 15 5 18 10 8 12 4 12 -15 0z"/>
<path d="M380 6190 c0 -5 5 -10 10 -10 6 0 10 5 10 10 0 6 -4 10 -10 10 -5 0
-10 -4 -10 -10z"/>
<path d="M350 6160 c0 -5 5 -10 10 -10 6 0 10 5 10 10 0 6 -4 10 -10 10 -5 0
-10 -4 -10 -10z"/>
<path d="M2095 6140 c3 -5 11 -10 16 -10 6 0 7 5 4 10 -3 6 -11 10 -16 10 -6
0 -7 -4 -4 -10z"/>
<path d="M315 6120 c-10 -12 -13 -20 -7 -20 7 0 12 4 12 9 0 5 8 11 18 13 11
2 13 6 6 10 -6 4 -19 -1 -29 -12z"/>
<path d="M5337 6120 c-10 -10 -14 -20 -9 -23 4 -4 16 3 25 13 21 25 8 33 -16
10z"/>
<path d="M4100 5875 c-7 -8 -9 -15 -6 -15 4 0 14 7 22 15 9 8 11 15 6 15 -5 0
-15 -7 -22 -15z"/>
<path d="M2380 5860 c0 -5 5 -10 11 -10 5 0 7 5 4 10 -3 6 -8 10 -11 10 -2 0
-4 -4 -4 -10z"/>
<path d="M4967 5763 c-12 -11 -8 -23 8 -23 8 0 15 7 15 15 0 16 -12 20 -23 8z"/>
<path d="M1600 5655 c0 -8 4 -15 10 -15 5 0 7 7 4 15 -4 8 -8 15 -10 15 -2 0
-4 -7 -4 -15z"/>
<path d="M4778 5553 c7 -3 16 -2 19 1 4 3 -2 6 -13 5 -11 0 -14 -3 -6 -6z"/>
<path d="M1720 5529 c0 -5 5 -7 10 -4 6 3 10 8 10 11 0 2 -4 4 -10 4 -5 0 -10
-5 -10 -11z"/>
<path d="M4730 5505 c0 -9 6 -12 15 -9 8 4 12 10 9 15 -8 14 -24 10 -24 -6z"/>
<path d="M1880 5370 c0 -5 5 -10 11 -10 5 0 7 5 4 10 -3 6 -8 10 -11 10 -2 0
-4 -4 -4 -10z"/>
<path d="M1914 5335 c3 -9 6 -19 6 -21 0 -2 7 -4 15 -4 21 0 19 13 -6 29 -19
11 -21 11 -15 -4z"/>
<path d="M355 2790 c3 -5 8 -10 11 -10 2 0 4 5 4 10 0 6 -5 10 -11 10 -5 0 -7
-4 -4 -10z"/>
<path d="M180 2782 c0 -7 -7 -12 -16 -12 -8 0 -12 -5 -8 -11 4 -7 11 -6 22 5
9 8 13 19 9 22 -4 4 -7 2 -7 -4z"/>
<path d="M280 2720 c0 -5 5 -10 10 -10 6 0 10 5 10 10 0 6 -4 10 -10 10 -5 0
-10 -4 -10 -10z"/>
<path d="M40 2645 c-8 -9 -8 -15 -2 -15 12 0 26 19 19 26 -2 2 -10 -2 -17 -11z"/>
<path d="M4915 1480 c3 -5 8 -10 11 -10 2 0 4 5 4 10 0 6 -5 10 -11 10 -5 0
-7 -4 -4 -10z"/>
<path d="M125 1410 c-3 -5 -1 -10 4 -10 6 0 11 5 11 10 0 6 -2 10 -4 10 -3 0
-8 -4 -11 -10z"/>
<path d="M5031 1364 c0 -11 3 -14 6 -6 3 7 2 16 -1 19 -3 4 -6 -2 -5 -13z"/>
<path d="M5265 1300 c-3 -5 -1 -10 4 -10 6 0 11 5 11 10 0 6 -2 10 -4 10 -3 0
-8 -4 -11 -10z"/>
<path d="M75 1290 c-3 -5 -1 -10 4 -10 6 0 11 5 11 10 0 6 -2 10 -4 10 -3 0
-8 -4 -11 -10z"/>
<path d="M310 1225 c0 -8 7 -15 16 -15 14 0 14 3 4 15 -7 8 -14 15 -16 15 -2
0 -4 -7 -4 -15z"/>
<path d="M5346 1221 c-3 -5 1 -11 9 -14 9 -4 12 -1 8 9 -6 16 -10 17 -17 5z"/>
<path d="M5406 1145 c-9 -26 -7 -32 5 -12 6 10 9 21 6 23 -2 3 -7 -2 -11 -11z"/>
<path d="M305 1140 c3 -5 10 -10 16 -10 5 0 9 5 9 10 0 6 -7 10 -16 10 -8 0
-12 -4 -9 -10z"/>
<path d="M270 1105 c0 -3 7 -14 16 -23 15 -14 16 -14 13 3 -4 17 -29 35 -29
20z"/>
<path d="M5344 1095 c-10 -8 -14 -14 -9 -15 15 0 40 18 34 24 -3 3 -14 -1 -25
-9z"/>
<path d="M1488 733 c7 -3 16 -2 19 1 4 3 -2 6 -13 5 -11 0 -14 -3 -6 -6z"/>
<path d="M1540 668 c0 -11 28 -10 35 1 3 6 -4 9 -15 8 -11 -1 -20 -5 -20 -9z"/>
<path d="M1760 570 c0 -5 5 -10 10 -10 6 0 10 5 10 10 0 6 -4 10 -10 10 -5 0
-10 -4 -10 -10z"/>
<path d="M4690 521 c0 -5 9 -7 20 -4 11 3 20 7 20 9 0 2 -9 4 -20 4 -11 0 -20
-4 -20 -9z"/>
<path d="M4776 513 c-6 -14 -5 -15 5 -6 7 7 10 15 7 18 -3 3 -9 -2 -12 -12z"/>
<path d="M4740 480 c-13 -8 -12 -10 3 -10 9 0 17 5 17 10 0 12 -1 12 -20 0z"/>
<path d="M4708 453 c6 -2 18 -2 25 0 6 3 1 5 -13 5 -14 0 -19 -2 -12 -5z"/>
<path d="M1798 403 c7 -3 16 -2 19 1 4 3 -2 6 -13 5 -11 0 -14 -3 -6 -6z"/>
<path d="M1945 379 c-10 -15 3 -25 16 -12 7 7 7 13 1 17 -6 3 -14 1 -17 -5z"/>
<path d="M1865 369 c-4 -6 -5 -12 -2 -15 2 -3 7 2 10 11 7 17 1 20 -8 4z"/>
<path d="M2776 351 c-4 -7 -5 -15 -2 -18 9 -9 19 4 14 18 -4 11 -6 11 -12 0z"/>
<path d="M4515 350 c-3 -5 -1 -10 4 -10 6 0 11 5 11 10 0 6 -2 10 -4 10 -3 0
-8 -4 -11 -10z"/>
<path d="M4577 320 c-9 -11 -13 -20 -8 -20 11 0 35 29 29 35 -2 2 -12 -4 -21
-15z"/>
<path d="M1890 320 c0 -5 7 -10 15 -10 8 0 15 5 15 10 0 6 -7 10 -15 10 -8 0
-15 -4 -15 -10z"/>
<path d="M2703 275 c0 -8 4 -15 9 -15 4 0 8 7 8 15 0 8 -4 15 -8 15 -5 0 -9
-7 -9 -15z"/>
<path d="M4545 280 c4 -6 11 -8 16 -5 14 9 11 15 -7 15 -8 0 -12 -5 -9 -10z"/>
<path d="M4511 261 c-7 -5 -12 -13 -10 -18 2 -5 12 -1 22 9 18 19 12 24 -12 9z"/>
<path d="M2515 90 c-3 -5 -1 -10 4 -10 6 0 11 5 11 10 0 6 -2 10 -4 10 -3 0
-8 -4 -11 -10z"/>
</g>
</svg>
